HIERARCHY
ROOT hip
{
	OFFSET 0.000000 0.000000 0.000000 
	CHANNELS 6 Xposition Yposition Zposition Xrotation Zrotation Yrotation
	JOINT abdomen
	{
		OFFSET 0.000000 3.402643 0.000000 
		CHANNELS 3 Xrotation Zrotation Yrotation
		JOINT chest
		{
			OFFSET 0.000000 8.438565 -0.680529 
			CHANNELS 3 Xrotation Zrotation Yrotation
			JOINT neck
			{
				OFFSET 0.000000 10.207942 -0.272212 
				CHANNELS 3 Xrotation Zrotation Yrotation
				JOINT head
				{
					OFFSET 0.000000 3.130431 0.000000 
					CHANNELS 3 Xrotation Zrotation Yrotation
					End Site
					{
						OFFSET 0.000000 3.130435 0.000000 
					}
				}
			}
			JOINT lCollar
			{
				OFFSET 3.470700 6.669187 -0.816635 
				CHANNELS 3 Yrotation Zrotation Xrotation
				JOINT lShldr
				{
					OFFSET 3.198488 0.000000 0.000000 
					CHANNELS 3 Zrotation Yrotation Xrotation
					JOINT lForeArm
					{
						OFFSET 10.139888 0.000000 0.000000 
						CHANNELS 3 Yrotation Zrotation Xrotation
						JOINT lHand
						{
							OFFSET 8.370511 0.000000 0.000000 
							CHANNELS 3 Zrotation Yrotation Xrotation
							End Site
							{
								OFFSET 4.083176 0.000000 0.000000 
							}
						}
					}
				}
			}
			JOINT rCollar
			{
				OFFSET -3.470700 6.669187 -0.816635 
				CHANNELS 3 Yrotation Zrotation Xrotation
				JOINT rShldr
				{
					OFFSET -3.198488 0.000000 0.000000 
					CHANNELS 3 Zrotation Yrotation Xrotation
					JOINT rForeArm
					{
						OFFSET -10.139888 0.000000 0.000000 
						CHANNELS 3 Yrotation Zrotation Xrotation
						JOINT rHand
						{
							OFFSET -8.370511 0.000000 0.000000 
							CHANNELS 3 Zrotation Yrotation Xrotation
							End Site
							{
								OFFSET -4.083176 0.000000 0.000000 
							}
						}
					}
				}
			}
		}
	}
	JOINT lThigh
	{
		OFFSET 5.308129 -1.633274 1.361059 
		CHANNELS 3 Xrotation Zrotation Yrotation
		JOINT lShin
		{
			OFFSET -2.041588 -20.007561 0.000000 
			CHANNELS 3 Xrotation Zrotation Yrotation
			JOINT lFoot
			{
				OFFSET 0.000000 -19.190928 -1.224953 
				CHANNELS 3 Xrotation Yrotation Zrotation
				End Site
				{
					OFFSET 0.000000 -2.449906 4.627600 
				}
			}
		}
	}
	JOINT rThigh
	{
		OFFSET -5.308129 -1.633274 1.361059 
		CHANNELS 3 Xrotation Zrotation Yrotation
		JOINT rShin
		{
			OFFSET 2.041588 -20.007561 0.000000 
			CHANNELS 3 Xrotation Zrotation Yrotation
			JOINT rFoot
			{
				OFFSET 0.000000 -19.190928 -1.224953 
				CHANNELS 3 Xrotation Yrotation Zrotation
				End Site
				{
					OFFSET 0.000000 -2.449906 4.627600 
				}
			}
		}
	}
}
MOTION
Frames: 18
Frame Time: 0.016667
9.643325 45.444469 28.638741 4.002772 -3.760362 -6.737626 18.724094 -2.784135 7.435370 -21.061949 2.251134 4.524276 -1.956407 -3.318382 -8.793151 17.093098 2.202989 -4.468995 1.993417 -2.013218 -0.007815 -87.506538 26.957375 3.925868 -60.579098 0.990645 6.110844 -13.581118 32.744041 -11.770725 -2.003164 1.994041 -0.018257 64.654221 41.361805 -7.867016 119.968460 -3.288365 2.883224 -0.177468 1.736601 2.520741 6.461113 4.129225 11.792900 37.099319 -3.237985 -2.503653 -2.978517 -0.002257 0.009625 -26.487209 -17.222858 3.827542 48.908672 2.531315 3.110362 -0.496699 0.034232 0.013150 
7.647826 45.169811 29.624720 3.985185 -5.786850 -9.876019 18.894188 -2.402418 8.289269 -21.261194 2.484794 4.853927 -2.436531 -3.629537 -7.902613 17.063347 2.165992 -4.081189 1.993417 -2.013218 -0.007815 -88.980507 28.224306 2.219597 -53.078060 1.010867 6.175393 -13.581118 32.744041 -11.770725 -2.003164 1.994041 -0.018257 69.919838 39.207584 -3.074453 114.883369 -3.364356 2.708117 -0.177468 1.736601 2.520741 6.403632 7.341918 12.348793 41.286026 -3.024164 -2.736463 -2.997977 -0.019096 -0.007818 -23.941565 -13.953054 -1.465865 47.674732 2.607352 3.034962 -0.488187 0.001933 0.021665 
5.866412 45.344242 30.466625 4.535483 -7.914907 -11.505498 18.996437 -2.003826 8.782735 -21.571821 2.352345 4.998439 -3.455354 -3.918667 -7.371550 16.808537 2.103477 -3.866414 1.993417 -2.013218 -0.007815 -89.262230 29.779911 2.567751 -47.103264 1.032079 6.220682 -13.581118 32.744041 -11.770725 -2.003164 1.994041 -0.018257 71.907478 39.405174 -1.436696 109.231064 -3.414849 2.521413 -0.177468 1.736601 2.520741 2.654924 11.500988 11.188412 50.052708 -2.547431 -3.170369 -3.007775 -0.006960 -0.023949 -21.921869 -11.219715 -5.217488 46.215347 2.685274 2.943535 -0.504809 0.051553 0.019809 
4.321557 45.890041 31.147736 5.506423 -10.713211 -10.733951 19.077896 -1.365960 9.127151 -21.878912 1.975695 5.017510 -4.462592 -3.728927 -7.698081 16.643578 2.208230 -4.037066 1.993417 -2.013218 -0.007815 -88.499878 30.834789 4.370380 -43.511559 1.041761 6.242978 -13.581118 32.744041 -11.770725 -2.003164 1.994041 -0.018257 71.074043 40.723000 -3.350949 103.948036 -3.466864 2.336415 -0.177468 1.736601 2.520741 -5.566271 16.882767 6.568316 62.564568 -1.830555 -3.677129 -2.997973 0.019622 0.008033 -19.323183 -8.142690 -10.407049 43.714909 2.821760 2.818026 -0.494928 0.052023 0.019984 
2.931081 46.555771 31.728878 6.458888 -13.879643 -9.535537 19.191191 -0.756285 9.834324 -22.205681 1.537089 5.202951 -5.985509 -3.127423 -8.452047 16.247128 2.559690 -4.371407 1.993417 -2.013218 -0.007815 -87.152992 32.111305 6.058571 -44.059334 1.037119 6.237983 -13.581118 32.744041 -11.770725 -2.003164 1.994041 -0.018257 69.099030 42.577343 -7.341372 99.279091 -3.485349 2.178861 -0.177468 1.736601 2.520741 -16.462391 22.008514 0.381878 75.201187 -0.954751 -4.000708 -2.978455 0.024722 -0.010981 -16.637440 -3.816712 -14.236229 40.150566 3.027057 2.645831 -0.487537 0.028651 0.000541 
1.668221 47.252663 32.407288 6.742222 -15.861952 -9.781977 19.620785 -0.726694 10.961547 -22.408426 1.300102 5.704347 -7.987816 -2.756241 -8.959540 15.596220 2.869034 -4.609236 1.993417 -2.013218 -0.007815 -86.012085 33.507648 7.270856 -46.544788 1.029841 6.229319 -13.581118 32.744041 -11.770725 -2.003164 1.994041 -0.018257 67.836426 44.756561 -10.948889 94.647392 -3.503242 2.005562 -0.177468 1.736601 2.520741 -26.098761 25.103662 -3.683985 84.585754 -0.243499 -4.107613 -2.978513 0.003919 -0.019494 -13.853190 0.196039 -14.287710 36.260548 3.182704 2.426249 -0.505703 0.039774 0.025745 
0.505357 47.952652 33.205761 6.475236 -16.695704 -10.141671 20.248228 -1.126962 11.898657 -22.523563 1.055445 6.193279 -9.513679 -2.831670 -9.203482 15.059649 2.961284 -4.779349 1.993417 -2.013218 -0.007815 -84.763710 34.454926 8.577429 -48.581341 1.019277 6.206163 -13.581118 32.744041 -11.770725 -2.003164 1.994041 -0.018257 67.503082 46.555035 -13.798850 89.791206 -3.485207 1.859094 -0.177468 1.736601 2.520741 -34.422115 26.190392 -5.881560 90.710831 0.165657 -4.146904 -2.978411 0.023274 0.009523 -10.697605 3.153560 -12.137872 32.365147 3.421247 2.232438 -0.497301 0.028947 0.000657 
-0.568617 48.583038 34.218048 6.543426 -16.897530 -9.568478 20.760208 -1.579818 12.242992 -22.209036 0.750420 6.441706 -9.889130 -3.251844 -9.297060 14.892147 2.869203 -4.881859 1.993417 -2.013218 -0.007815 -83.166519 34.995617 10.475470 -49.873577 1.012941 6.204579 -13.581118 32.744041 -11.770725 -2.003164 1.994041 -0.018257 67.570976 47.362316 -15.981706 84.883255 -3.465881 1.677437 -0.177468 1.736601 2.520741 -42.484451 25.280647 -7.169181 93.684937 0.379837 -4.145278 -2.978381 0.023394 0.020121 -7.821900 5.204357 -9.934169 28.438934 3.543552 2.026307 -0.517099 0.017416 0.017156 
-1.561717 49.105236 35.466270 7.043316 -16.609257 -8.577514 21.106554 -1.949753 12.206341 -21.612932 0.680933 6.517359 -9.726203 -3.580732 -9.348198 14.881621 2.812705 -4.955972 1.993417 -2.013218 -0.007815 -81.730728 35.453068 12.394197 -51.196648 1.012982 6.186388 -13.581118 32.744041 -11.770725 -2.003164 1.994041 -0.018257 67.491302 46.912655 -16.968391 80.581749 -3.443691 1.534621 -0.177468 1.736601 2.520741 -49.390182 22.937864 -7.760601 93.489899 0.379741 -4.131468 -2.978081 0.047499 0.019435 -5.315849 6.351173 -8.140902 24.578363 3.684203 1.746166 -0.496105 0.041077 0.015779 
-2.489285 49.440052 36.878124 7.540525 -16.019859 -7.485047 21.385996 -2.346250 12.020937 -21.066151 0.710815 6.542638 -9.636937 -3.466136 -9.529500 14.824340 2.917314 -5.038322 1.993417 -2.013218 -0.007815 -80.699463 35.841877 13.454683 -52.724850 1.005899 6.177146 -13.581118 32.744041 -11.770725 -2.003164 1.994041 -0.018257 67.401108 44.730515 -16.316706 77.647346 -3.421092 1.417959 -0.177468 1.736601 2.520741 -54.442795 20.075502 -7.924001 90.165100 0.133029 -4.129974 -2.968728 0.010708 0.004380 -3.037646 6.893862 -6.680636 21.398529 3.776194 1.521853 -0.494628 0.057933 0.011793 
-3.339435 49.545010 38.463333 8.106307 -15.679720 -6.474447 21.511305 -2.798649 11.885685 -20.538094 0.548697 6.601089 -9.828164 -3.011865 -9.879089 14.690468 3.136416 -5.164158 1.993417 -2.013218 -0.007815 -79.701920 36.563759 14.072418 -54.998600 1.000519 6.163467 -13.581118 32.744041 -11.770725 -2.003164 1.994041 -0.018257 67.803642 40.045486 -14.150779 76.943611 -3.414119 1.401554 -0.177468 1.736601 2.520741 -57.695805 17.752106 -7.832782 83.755653 -0.302003 -4.128269 -2.978428 0.021389 0.008752 -0.975061 7.423906 -5.438797 18.869011 3.858131 1.340249 -0.496857 0.039103 -0.005903 
-4.126613 49.504539 40.209335 9.022929 -15.518228 -5.440680 21.461695 -3.236037 11.648418 -20.039272 0.256883 6.585991 -10.166712 -2.585762 -10.132201 14.556045 3.308508 -5.244706 1.993417 -2.013218 -0.007815 -78.406174 38.005741 15.382178 -58.607353 0.994286 6.129764 -13.581118 32.744041 -11.770725 -2.003164 1.994041 -0.018257 69.126518 33.603889 -10.957767 78.371788 -3.431620 1.455015 -0.177468 1.736601 2.520741 -59.760479 15.877929 -7.587637 75.189827 -0.896421 -4.004933 -2.988268 0.008147 0.003334 0.732322 8.137200 -4.516717 16.600389 3.895186 1.217828 -0.487202 0.026864 0.020778 
-4.859644 49.332947 42.106827 10.174821 -15.217604 -4.367358 21.275715 -3.649868 11.099313 -19.619141 -0.018397 6.412807 -10.545238 -2.237000 -10.150407 14.411049 3.424192 -5.204510 1.993417 -2.013218 -0.007815 -76.917290 40.075283 17.238817 -63.218243 0.983689 6.087964 -13.581118 32.744041 -11.770725 -2.003164 1.994041 -0.018257 71.437469 26.446249 -7.067829 81.343605 -3.447526 1.546866 -0.177468 1.736601 2.520741 -60.378075 14.169441 -7.258865 64.713867 -1.607156 -3.737365 -2.978394 -0.025145 -0.010289 2.225659 8.617325 -4.061872 14.453876 3.934677 1.104967 -0.507797 -0.006921 0.028727 
-5.503115 49.085674 44.146778 11.443109 -14.686104 -3.748823 21.057211 -3.910589 10.497358 -19.345703 -0.018428 6.197876 -10.875748 -1.985205 -9.902095 14.295575 3.549006 -5.072796 1.993417 -2.013218 -0.007815 -76.078629 42.072495 18.826563 -67.605141 0.973898 6.051989 -13.581118 32.744041 -11.770725 -2.003164 1.994041 -0.018257 74.251167 19.847002 -3.579909 84.423645 -3.460723 1.660682 -0.177468 1.736601 2.520741 -59.656540 12.880368 -7.304484 52.920258 -2.339693 -3.349011 -3.027256 -0.025151 0.000247 3.952699 8.655065 -4.287637 11.898153 3.988938 0.903397 -0.496899 0.031588 0.012134 
-6.048107 48.746674 46.265636 12.723351 -14.275010 -3.772842 20.830503 -3.852564 10.019369 -19.228851 0.331950 5.977968 -11.129227 -1.897258 -9.392671 14.190079 3.683242 -4.820765 1.993417 -2.013218 -0.007815 -76.750755 43.454514 19.114531 -71.041130 0.970904 6.037614 -13.581118 32.744041 -11.770725 -2.003164 1.994041 -0.018257 76.832573 14.256321 -0.845551 86.593697 -3.479635 1.727148 -0.177468 1.736601 2.520741 -58.508453 12.362526 -8.203483 41.492641 -2.951573 -2.812712 -2.958981 -0.007177 0.007613 6.032441 8.715918 -4.860325 8.873871 4.030498 0.684367 -0.497232 0.023162 0.019359 
-6.499752 48.274792 48.416885 13.808487 -14.194958 -4.113181 20.614943 -3.437340 9.508725 -19.396984 0.893508 5.671782 -11.471660 -1.961992 -8.527939 14.045013 3.789820 -4.423289 1.993417 -2.013218 -0.007815 -79.303787 43.833473 17.409714 -73.182152 0.972290 6.011164 -13.581118 32.744041 -11.770725 -2.003164 1.994041 -0.018257 79.193932 9.753834 1.180052 87.650444 -3.485874 1.779449 -0.177468 1.736601 2.520741 -57.681412 12.489674 -10.261613 32.810013 -3.345542 -2.350593 -2.968603 -0.038093 0.016062 8.699261 9.050407 -5.003011 5.298522 4.067559 0.433207 -0.497853 0.009585 0.014144 
-6.856884 47.702686 50.604412 14.263698 -14.367462 -4.411330 20.602173 -2.815772 8.971181 -19.830933 1.460695 5.293782 -12.272608 -1.918067 -7.542057 13.704699 3.928230 -3.964346 1.993417 -2.013218 -0.007815 -82.864227 42.350647 14.623521 -73.260017 0.966920 6.021835 -13.581118 32.744041 -11.770725 -2.003164 1.994041 -0.018257 81.466103 6.070387 2.043609 87.474426 -3.491315 1.768753 -0.177468 1.736601 2.520741 -57.450703 12.880181 -12.022658 29.260897 -3.471612 -2.136692 -2.968709 -0.010676 -0.014915 13.414226 9.615877 -4.418510 -0.984092 4.074913 0.000871 -0.536330 0.027038 0.010396 
-7.126750 47.080128 52.839565 14.281192 -14.480416 -4.737153 20.673164 -2.394043 8.481723 -20.518200 1.783571 4.947896 -13.062578 -1.712354 -6.673256 13.393719 4.066392 -3.534243 1.993417 -2.013218 -0.007815 -86.015442 38.677708 12.100314 -70.736961 0.972007 6.032845 -13.581118 32.744041 -11.770725 -2.003164 1.994041 -0.018257 83.934082 2.723239 1.818530 86.124298 -3.474827 1.709722 -0.177468 1.736601 2.520741 -57.610691 13.368457 -11.499465 30.444141 -3.443076 -2.195673 -2.968742 0.003077 0.011807 16.625643 9.840078 -4.113907 -3.181113 4.099606 -0.162026 -0.536252 0.031483 0.001642 
